<?xml version="1.0" standalone="no"?>
<!DOCTYPE svg PUBLIC "-//W3C//DTD SVG 20010904//EN"
 "http://www.w3.org/TR/2001/REC-SVG-20010904/DTD/svg10.dtd">
<svg version="1.0" xmlns="http://www.w3.org/2000/svg"
 width="500.000000pt" height="500.000000pt" viewBox="0 0 500.000000 500.000000"
 preserveAspectRatio="xMidYMid meet">
<metadata>
Created by potrace 1.16, written by Peter Selinger 2001-2019
</metadata>
<g transform="translate(0.000000,500.000000) scale(0.100000,-0.100000)"
fill="#000000" stroke="none">
<path d="M605 3155 c-73 -26 -75 -32 -75 -276 0 -240 6 -218 -77 -312 -46 -51
-44 -83 8 -132 68 -67 69 -69 69 -309 l0 -214 26 -31 c28 -34 76 -51 142 -51
l43 0 -3 38 c-3 37 -4 37 -53 42 -27 3 -56 9 -62 13 -10 6 -13 61 -13 218 0
237 -4 257 -71 325 -27 27 -37 44 -29 49 6 4 29 29 50 57 l40 50 0 218 c0 248
-2 241 84 250 51 5 51 5 54 43 l3 37 -48 0 c-26 -1 -66 -7 -88 -15z"/>
<path d="M2150 3131 l0 -41 39 0 c22 0 51 -4 65 -10 l26 -10 0 -217 c0 -239
-3 -225 68 -312 20 -24 28 -42 22 -46 -6 -4 -29 -29 -50 -57 l-40 -50 0 -223
c0 -220 0 -224 -22 -239 -12 -9 -42 -16 -65 -16 l-43 0 0 -41 0 -42 60 6 c76
7 121 32 137 77 8 23 12 110 12 246 l1 211 38 38 c43 44 72 85 72 102 0 6 -25
42 -55 78 l-55 68 0 209 c0 232 -5 255 -62 284 -17 9 -58 19 -90 21 l-58 6 0
-42z"/>
<path d="M1666 3026 c-25 -36 -46 -69 -46 -74 0 -5 17 -21 38 -35 20 -13 63
-43 94 -66 l57 -42 50 68 c28 38 50 73 51 78 0 14 -166 135 -184 135 -8 0 -35
-29 -60 -64z"/>
<path d="M2650 3030 c0 -11 167 -1001 176 -1042 l6 -28 124 0 c68 0 124 3 124
7 0 9 168 1007 176 1046 l6 27 -86 0 c-72 0 -85 -3 -90 -17 -2 -10 -31 -197
-63 -415 -31 -218 -59 -395 -61 -393 -4 4 -122 790 -122 813 0 9 -26 12 -95
12 -55 0 -95 -4 -95 -10z"/>
<path d="M3314 3013 c8 -38 176 -1039 176 -1047 0 -3 56 -6 124 -6 l124 0 6
28 c8 38 176 1035 176 1044 0 4 -38 8 -84 8 l-84 0 -11 -67 c-19 -117 -111
-743 -111 -755 0 -47 -17 51 -69 405 -34 225 -61 410 -61 413 0 2 -43 4 -96 4
l-96 0 6 -27z"/>
<path d="M3978 3035 c-4 -4 141 -886 170 -1030 l8 -40 124 0 124 0 87 515 c48
283 88 525 88 538 1 21 -2 22 -84 22 -61 0 -85 -3 -85 -12 -1 -24 -119 -810
-122 -814 -2 -2 -30 175 -62 394 -32 218 -60 405 -63 415 -4 14 -17 17 -92 17
-48 0 -90 -2 -93 -5z"/>
<path d="M1322 2546 c-133 -184 -243 -340 -244 -347 -3 -9 182 -153 188 -146
19 24 494 688 494 690 0 5 -186 137 -192 137 -2 0 -113 -150 -246 -334z"/>
<path d="M1026 2109 c-9 -26 -37 -222 -32 -226 5 -6 206 100 206 109 0 3 -24
23 -52 44 -29 20 -68 48 -85 62 -25 18 -34 21 -37 11z"/>
</g>
</svg>
